<svg t="1591368891037" class="icon" viewBox="0 0 1024 1024" version="1.1" xmlns="http://www.w3.org/2000/svg" p-id="11785" width="32" height="32"><path d="M913.6 539.8H748.9s-12-0.3-16.9 2c-3.3 1.5-12.7 9.3-12.7 9.3L516.1 753.3c-3.3 3.3-8.7 3.3-12.1 0L288.3 538.1c-3.3-3.3-3.3-8.7 0-12.1l216-215.7c3.4-3.3 8.8-3.3 12.1 0l190 190.3s7.8 9 17 11.5c8.6 2.2 21.1-8.9 21.1-8.9l87.8-89.1-255.8-254.7c-54.2-54.1-113.7-49.2-136.7-45.5C234.3 147.8 85.4 323.9 85.4 534c0 236.3 195.9 425.5 425 425.5 226 0 414.5-181.6 425.2-409.8 0.1-2.7 0.8-4.7-4.6-8.6-5.8-4-17.4-1.3-17.4-1.3zM644.2 152.6l224.3 222.8 62.8-60.2s5.4-9.5 7.3-18.9c1-4.8-8.3-12.8-8.3-12.8l-137.1-137C663.9 17.3 520.4 79.4 520.4 79.4s59.9 0.5 123.8 73.2z" fill="#105AA1" p-id="11786"></path></svg>
