<svg t="1591369400171" class="icon" viewBox="0 0 1077 1024" version="1.1" xmlns="http://www.w3.org/2000/svg" p-id="2828" width="32" height="32"><path d="M711.464421 0l-52.601263 46.618947 159.043368 192.565895 9.593263 13.042526 7.114106 13.150316 3.557052 7.221895 1.185685 5.874526 1.293473 7.383579v5.820632l-1.293473 14.389895-3.449264 13.20421-6.03621 13.150316-8.353684 13.096421-230.885053 265.377684-5.982316 4.796632-2.317473 6.03621-7.221895 8.353684-5.874526 10.886737-3.557053 10.725053-4.850526 10.725053-2.425264 10.778947-1.239579 11.964631-2.425263 10.671158v12.018527l2.425263 11.910737 1.239579 13.20421 3.610948 10.725053 4.850526 12.018526 4.634947 11.856842 6.090106 12.018526 4.742737 5.874527 2.317473 4.904421 168.636632 205.608421H1018.610526l-154.031158-165.025684-7.275789-10.671158-1.185684-4.796632-1.293474-4.850526v-13.042526l1.293474-4.850527 1.185684-4.796631 2.425263-5.982316 4.850526-7.221895 5.982316-10.617263 7.114105-8.407579 154.192843-179.415579 10.886736-13.150316 8.29979-11.910737 5.982316-12.018526 7.06021-11.856842 4.796632-12.018526 3.610947-11.910737 2.425263-11.964632v-34.654316l-2.425263-12.072421-3.610947-10.778947-4.796632-11.910737-7.06021-12.018526-5.982316-9.539369-8.29979-11.910736z" fill="#006138" p-id="2829"></path><path d="M339.536842 286.881684l1.239579-19.078737 3.557053-20.37221 1.293473-9.485474 3.557053-10.778947 7.221895-17.946948 8.299789-16.707368 4.742737-8.353684 4.850526-8.407579 11.964632-14.336 10.832842-15.629474 15.413895-11.964631 14.336-10.725053 16.761263-10.725053 16.761263-8.407579 17.893053-5.982315 10.832842-3.503158 9.485474-1.293474 9.593263-2.317474 10.778947-1.293473h9.539368l10.778948-2.263579 17.839158 2.263579 17.946947 3.610947 18.054737 2.479158 16.653474 7.06021 8.461473 3.718737 8.407579 3.449263 16.653474 8.407579 15.521684 9.647158 13.312 11.910737 10.617263 13.258105 7.168 5.928421 4.742737 7.114106 12.072421 13.258105 8.353684 16.599579 8.29979 16.761263 1.239579 8.29979 3.503158 8.407578 4.850526 17.946948 3.557053 18.000842h-115.873685l-81.381052-81.273263-105.256421 102.723368 105.256421 102.885053 81.381052-81.273263h115.873685L732.968421 328.757895l-4.850526 16.761263-3.503158 8.299789-1.239579 8.407579-8.29979 16.761263-8.353684 16.707369-12.072421 13.150316-11.910737 13.20421-10.617263 13.150316-13.312 11.910737-8.407579 4.796631-7.114105 4.850527-8.353684 4.850526-8.29979 3.557053-16.869052 7.168-16.653474 5.928421-18.054737 4.742737-17.946947 2.371368-17.839158 1.185684-20.318316-1.185684-20.37221-3.503158-9.485474-1.239579-10.832842-3.610947-17.893053-7.060211-16.761263-8.353684-8.353684-4.850526-8.407579-4.850527-14.336-12.018526-15.413895-11.856842-10.832842-14.336-11.964632-15.629474-9.593263-16.653473-8.299789-15.46779-7.221895-19.186526-3.557053-9.593263-1.293473-9.485474-2.425263-10.778947-1.13179-9.647158-1.239579-9.593263z" fill="#D0161F" p-id="2830"></path><path d="M364.705684 0L33.360842 388.581053l-8.407579 11.910736-8.138105 9.539369-4.904421 12.018526-4.796632 11.910737-3.503158 10.778947L0 456.811789v34.654316l3.610947 11.964632 3.503158 11.910737 4.796632 12.018526 5.982316 11.856842 7.06021 12.018526 8.407579 11.910737 9.701053 13.150316 153.007158 179.415579 8.299789 8.407579 7.27579 10.617263 4.796631 7.221895 1.185684 5.982316 2.317474 4.796631 1.239579 4.850527v13.042526l-1.239579 4.850526-2.317474 4.796632-5.982315 10.671158-155.486316 165.025684h266.563368l167.504842-205.608421 3.718737-4.904421 3.449263-5.874527 6.036211-12.018526 4.688842-11.856842 6.090105-12.018526 2.317474-10.725053 2.425263-13.20421 1.293474-11.910737v-12.018527l-1.293474-10.671158-2.425263-11.964631-1.185684-10.778947-4.796632-10.725053-4.688842-10.725053-6.144-10.886737-5.766737-8.353684-3.718737-6.03621-4.688842-4.796632-230.831158-265.377684-8.353684-13.096421-7.275789-13.150316-2.317474-13.20421-2.317474-14.389895v-5.820632l2.317474-7.383579 1.239579-5.874526 3.557053-7.221895 5.928421-13.150316 10.778947-13.042526L417.253053 46.618947z" fill="#006138" p-id="2831"></path></svg>
